<svg xmlns="http://www.w3.org/2000/svg"><symbol id="comment" viewBox="0 0 256 256"><path fill-rule="evenodd" d="M207 50c-21.2-17-50-26.7-79.08-26.7-29.58 0-57.71 9.53-79.2 26.85C26.33 68.2 14 92.68 14 119.08a84.59 84.59 0 0 0 18.1 52.21l-20.46 65.33 71.16-30.73a182.36 182.36 0 0 0 43.88 5.58c32 0 61.41-9.65 82.71-27.18 20.93-17.23 32.46-40.39 32.46-65.21 0-26.48-12.38-51-34.85-69.08zm-80.3 143c-17.35 0-31.34-3-43.86-6.18l-1.55-.4-39.97 17.25 11.41-36.45-1.64-2c-9.67-11.56-18.62-25.16-18.62-46.17 0-42.62 42.82-77.3 95.45-77.3s95.45 34.68 95.45 77.3c0 42.17-41.57 73.95-96.69 73.95z"/><circle cx="173.44" cy="119.02" r="18.34"/><path fill-rule="evenodd" d="M127.92 137.36A18.35 18.35 0 1 1 146.27 119a18.36 18.36 0 0 1-18.35 18.36zm-45.51 0A18.35 18.35 0 1 1 100.75 119a18.37 18.37 0 0 1-18.34 18.36z"/></symbol><symbol id="download" viewBox="0 0 256 256"><path d="M147.19 32.06v105.53h24.08L128 185.66l-43.27-48.07h24.08V32.06zm19.19-19.19H89.62v105.54h-48L128 214.35l86.35-95.94h-48zm28.78 182.29v28.78H60.84v-28.78H41.65v48h172.7v-48z"/></symbol><symbol id="fullscreen" viewBox="0 0 256 256"><path d="M230.84 102.29h-34.28V59.44h-42.85V25.16h77.13zm-77.13 128.55v-34.28h42.85v-42.85h34.28v77.13zM25.16 153.71h34.28v42.85h42.85v34.28H25.16zm77.13-128.55v34.28H59.44v42.85H25.16V25.16z"/></symbol><symbol id="heart" viewBox="0 0 256 256"><path d="M128 103.25c2.09-10 13.82-55.62 48.06-55.62 19.83 0 41.24 13.85 41.24 44.68 0 34.89-32.39 75.64-89.3 112.78C71.09 168 38.7 127.2 38.7 92.31c0-31.12 21.15-44.7 40.87-44.7 35.03 0 45.95 45.78 48.43 55.64zM20.84 92.31c0 36.32 27.32 84.69 107.16 133.92 79.84-49.23 107.16-97.6 107.16-133.92C235.16 21.2 149 11.68 128 58.93 107.12 11.94 20.84 20.8 20.84 92.31z"/></symbol><symbol id="share" viewBox="0 0 256 256"><path d="M22.53 128l96.68 27.25 61.53-71.2-71.69 49.86-37.9-10.57 135-67.5-34.91 128.06-33-29.35-19.07 25.71v-6.76l-17.58-4.92v64.89l39.32-53 39.79 35.43 52.77-193.37z"/></symbol><symbol id="comment" viewBox="0 0 256 256"><defs><style>.cls-1{fill-rule:evenodd}</style></defs><path d="M207 50c-21.2-17-50-26.7-79.08-26.7-29.58 0-57.71 9.53-79.2 26.85C26.33 68.2 14 92.68 14 119.08a84.59 84.59 0 0 0 18.1 52.21l-20.46 65.33 71.16-30.73a182.36 182.36 0 0 0 43.88 5.58c32 0 61.41-9.65 82.71-27.18 20.93-17.23 32.46-40.39 32.46-65.21 0-26.48-12.38-51-34.85-69.08zm-80.3 143c-17.35 0-31.34-3-43.86-6.18l-1.55-.4-39.97 17.25 11.41-36.45-1.64-2c-9.67-11.56-18.62-25.16-18.62-46.17 0-42.62 42.82-77.3 95.45-77.3s95.45 34.68 95.45 77.3c0 42.17-41.57 73.95-96.69 73.95z" class="cls-1"/><circle cx="173.44" cy="119.02" r="18.34"/><path d="M127.92 137.36A18.35 18.35 0 1 1 146.27 119a18.36 18.36 0 0 1-18.35 18.36zm-45.51 0A18.35 18.35 0 1 1 100.75 119a18.37 18.37 0 0 1-18.34 18.36z" class="cls-1"/></symbol><symbol id="download" viewBox="0 0 256 256"><path d="M147.19 32.06v105.53h24.08L128 185.66l-43.27-48.07h24.08V32.06zm19.19-19.19H89.62v105.54h-48L128 214.35l86.35-95.94h-48zm28.78 182.29v28.78H60.84v-28.78H41.65v48h172.7v-48z"/></symbol><symbol id="fullscreen" viewBox="0 0 256 256"><path d="M230.84 102.29h-34.28V59.44h-42.85V25.16h77.13zm-77.13 128.55v-34.28h42.85v-42.85h34.28v77.13zM25.16 153.71h34.28v42.85h42.85v34.28H25.16zm77.13-128.55v34.28H59.44v42.85H25.16V25.16z"/></symbol><symbol id="heart" viewBox="0 0 256 256"><path d="M128 103.25c2.09-10 13.82-55.62 48.06-55.62 19.83 0 41.24 13.85 41.24 44.68 0 34.89-32.39 75.64-89.3 112.78C71.09 168 38.7 127.2 38.7 92.31c0-31.12 21.15-44.7 40.87-44.7 35.03 0 45.95 45.78 48.43 55.64zM20.84 92.31c0 36.32 27.32 84.69 107.16 133.92 79.84-49.23 107.16-97.6 107.16-133.92C235.16 21.2 149 11.68 128 58.93 107.12 11.94 20.84 20.8 20.84 92.31z"/></symbol><symbol id="share" viewBox="0 0 256 256"><path d="M22.53 128l96.68 27.25 61.53-71.2-71.69 49.86-37.9-10.57 135-67.5-34.91 128.06-33-29.35-19.07 25.71v-6.76l-17.58-4.92v64.89l39.32-53 39.79 35.43 52.77-193.37z"/></symbol></svg>